<svg xmlns="http://www.w3.org/2000/svg" width="1024" height="313.122" viewBox="0 0 1024 313.122"><g class="svg-logo__text" fill="#464646"><path d="M353.092 176.74l-49.658-59.154H292.95v77.95h12.067V136.58l49.46 58.956h10.485v-77.95h-11.87zM441.54 161.902c0 13.454-7.123 23.148-22.554 23.148-15.234 0-22.357-9.1-22.357-23.148v-44.91h-11.87v45.7c0 19.39 11.67 33.437 34.225 33.437 22.75 0 34.424-15.434 34.424-33.437v-45.7h-11.87v44.91zM515.544 155.77l-31.456-38.184h-10.88v77.95h11.87V136.58l29.28 35.413h2.374l29.28-35.414v58.956h12.068v-77.95H547.2zM622.392 155.077c7.914-2.572 13.058-8.31 13.058-17.014 0-14.046-10.09-20.377-26.51-20.377h-30.073v77.75h35.414c17.807 0 27.303-7.913 27.303-20.574-.002-11.673-7.32-17.807-19.19-19.785zm-31.655-27.104h16.62c9.694 0 15.628 2.968 15.628 11.475 0 7.716-6.33 11.08-16.223 11.08h-16.025v-22.555zm21.96 57.373h-21.96V161.21h19.982c11.474 0 18.2 3.56 18.2 12.464 0 7.52-5.54 11.672-16.223 11.672zM658.992 195.536h60.34v-10.682H670.47v-24.337h40.557V150.03h-40.557v-21.96h48.865v-10.484h-60.34zM800.448 142.613c0-17.212-11.87-24.928-29.28-24.928h-33.832v77.75h11.87V166.75h14.245l28.293 28.687h13.65v-1.98l-27.3-26.905c12.66-1.385 22.355-10.484 22.355-23.94zm-51.24 14.84V128.17h23.147c8.706 0 15.43 4.75 15.43 14.84 0 9.298-6.725 14.442-15.43 14.442h-23.147zM861.556 169.42c12.266-9.1 15.63-17.212 15.63-27.3 0-13.256-9.1-25.127-28.292-25.127-18.992 0-29.478 10.88-29.676 27.104l10.88 1.98c.2-10.486 6.135-18.004 18.6-18.004 11.078 0 16.42 6.727 16.42 15.036 0 7.517-3.76 13.453-12.465 19.98L821 187.03v9.1h58.757v-10.485h-39.963l21.762-16.224zM929.81 143.603c-12.86 0-20.774 6.133-24.93 10.485.595-16.223 8.508-27.5 24.73-27.5 9.696 0 17.807 3.562 21.764 6.332l3.76-9.695c-4.353-2.77-14.444-6.727-26.71-6.727-22.75 0-35.414 16.223-35.414 39.964 0 24.137 12.86 40.162 35.414 40.162 17.41 0 30.073-11.08 30.073-27.5-.198-16.224-10.683-25.52-28.687-25.52zm-1.582 41.942c-13.058 0-20.378-8.31-22.554-20.774 3.76-4.153 11.278-11.275 22.554-11.275 10.683 0 18.4 4.946 18.4 15.63 0 9.098-7.717 16.42-18.4 16.42z"></path></g><g class="svg-logo__cube" fill="none" stroke="#464646" stroke-width="4.5" stroke-linecap="round" stroke-linejoin="round" stroke-miterlimit="10"><path d="M155.702 70.216L95.552 95.2l-29.48 56.72 15.475 41.716 25.422 42.01 51.118 7.26 44.132-6.246 36.806-54.86-2.556-63.81-34.08-25.49z"></path><path d="M155.702 70.216l31.852 26.515 48.916 21.26M95.552 95.2l25.83 30.906 65.963-29.19.097 69.042 51.584 15.84M81.77 193.588l39.61-67.482 66.062 39.852-37.92 62.152zM106.97 235.647l42.768-7.427 52.482 8.44"></path></g></svg>
